<?xml version="1.0" encoding="utf-8"?>
<!-- Generator: Adobe Illustrator 24.2.1, SVG Export Plug-In . SVG Version: 6.00 Build 0)  -->
<svg version="1.1" id="Camada_1" xmlns="http://www.w3.org/2000/svg" xmlns:xlink="http://www.w3.org/1999/xlink" x="0px" y="0px"
	 viewBox="0 0 30 25" style="enable-background:new 0 0 30 25;" xml:space="preserve">
<style type="text/css">
	.st0{fill:#563062;}
</style>
<g id="Grupo_233" transform="translate(-11.436)">
	<rect id="Ret창ngulo_96" x="15.4" y="5.7" class="st0" width="9.4" height="4.8"/>
	<rect id="Ret창ngulo_97" x="28" y="5.7" class="st0" width="9.4" height="4.8"/>
	<rect id="Ret창ngulo_98" x="16.9" y="11.2" class="st0" width="7.9" height="12.3"/>
	<rect id="Ret창ngulo_99" x="28" y="11.2" class="st0" width="7.9" height="12.3"/>
	<path id="Caminho_83" class="st0" d="M30.5,1.5c-1.8,0.1-3.4,1.2-4.1,2.8c-0.7-1.6-2.3-2.7-4.1-2.8c-1.6,0-2.9,1.3-2.8,2.8
		c0,1.5,1.2,2.8,2.8,2.8V5.7c-0.7,0-1.3-0.6-1.3-1.3c0-0.7,0.5-1.3,1.3-1.3c2.1,0,3.1,2.7,3.3,3.4v17.1h1.6v-17
		C27.3,6.2,28.3,3,30.5,3c0.7,0,1.3,0.6,1.3,1.3c0,0.7-0.5,1.3-1.3,1.3v1.5c1.6,0,2.9-1.3,2.8-2.8C33.4,2.8,32.1,1.5,30.5,1.5z"/>
</g>
</svg>
