<svg xmlns="http://www.w3.org/2000/svg" width="25" height="30" viewBox="0 0 30 16.03">
  <g id="Grupo_112" data-name="Grupo 112" transform="translate(0.006 0.002)">
    <g id="Grupo_113" data-name="Grupo 113" transform="translate(4.866 -0.002)">
      <g id="Grupo_112-2" data-name="Grupo 112" transform="translate(0 0)">
        <path id="Caminho_67" data-name="Caminho 67" d="M106.4.664A1.777,1.777,0,0,0,104.048.9L99.176,6.884a2.154,2.154,0,0,1-1.319.57H93.722a.9.9,0,0,1-.909-.861.882.882,0,0,1,.891-.921h3.529a1.81,1.81,0,0,0,1.812-1.634,1.79,1.79,0,0,0-1.776-1.931h-4.89l-.44-.327c-.2-.143-.386-.3-.576-.452A6.263,6.263,0,0,0,86.046.164a6.506,6.506,0,0,0-2.739,1.366l-.024-.024L82,2.648l5.068,10.159h10.2a5.369,5.369,0,0,0,4.278-2.139l5.228-7.486A1.8,1.8,0,0,0,106.4.664Z" transform="translate(-82 0.002)" fill="#552e62"/>
      </g>
    </g>
    <rect id="Retângulo_65" data-name="Retângulo 65" width="3.85" height="13.118" transform="translate(-0.006 4.27) rotate(-26.322)" fill="#552e62"/>
  </g>
</svg>
