<?xml version="1.0" encoding="utf-8"?>
<!-- Generator: Adobe Illustrator 24.2.3, SVG Export Plug-In . SVG Version: 6.00 Build 0)  -->
<svg version="1.1" id="Camada_1" xmlns="http://www.w3.org/2000/svg" xmlns:xlink="http://www.w3.org/1999/xlink" x="0px" y="0px"
	 viewBox="0 0 800 800" style="enable-background:new 0 0 800 800;" xml:space="preserve">
<style type="text/css">
	.st0{fill:#552E62;}
</style>
<g id="shopping-cart" transform="translate(-6.913 0.001)">
	<g id="Grupo_252" transform="translate(6.913 -0.001)">
		<g id="Grupo_251" transform="translate(0 0)">
			<circle id="Elipse_7" class="st0" cx="335.31" cy="605.69" r="61.12"/>
			<path id="Caminho_113" class="st0" d="M513.69,544.61L513.69,544.61c-33.76-0.01-61.13,27.35-61.14,61.1
				c-0.01,33.76,27.35,61.13,61.1,61.14c33.76,0.01,61.13-27.35,61.14-61.1c0-0.02,0-0.04,0-0.06
				C574.77,571.96,547.43,544.62,513.69,544.61z"/>
			<path id="Caminho_114" class="st0" d="M617.87,482.21H299.13l-6.24-36.18h261.98c7.7,0,14.62-4.7,17.46-11.86l62.38-157.18
				c3.75-9.68-1.06-20.57-10.74-24.31c-2.15-0.83-4.43-1.26-6.74-1.27H260.45l-15.04-86.08c-1.57-9.12-9.54-15.73-18.79-15.6h-71.57
				c-10.33-0.98-19.51,6.6-20.49,16.93c-0.98,10.33,6.6,19.51,16.93,20.49c1.18,0.11,2.38,0.11,3.56,0h56.22l53.57,316.88
				c1.57,9.12,9.54,15.73,18.79,15.6h334.25c10.33,0.98,19.51-6.6,20.49-16.93c0.98-10.33-6.6-19.51-16.93-20.49
				C620.25,482.1,619.06,482.1,617.87,482.21z"/>
		</g>
	</g>
</g>
</svg>
